<?xml version="1.0" encoding="UTF-8" standalone="no"?>
<svg
   xmlns:svg="http://www.w3.org/2000/svg"
   xmlns="http://www.w3.org/2000/svg"
   version="1.1"
   viewBox="0 0 508 140"
   height="140"
   width="508">
  <g
     fill-rule="evenodd"
     fill="none"
     stroke-width="1"
     stroke="none"
     id="Brand-Book">
    <g
       fill-rule="nonzero"
       id="Gatego-Logo">
      <path
         fill="#353535"
         id="gate"
         d="m 38.95,23.25 c 7.760831,0 14.98357,1.884934 21.209044,5.397095 L 60.705751,28.961208 61.049565,29.165 61.05,25.65 h 18.2 v 75.55 c 0,22.90567 -15.583815,38.2 -38.5,38.2 -19.665679,0 -35.0931365,-11.60215 -38.0645136,-28.6557 L 2.5992658,110.22586 1.8664565,105.6 H 20.280191 l 0.680136,3.15778 C 22.673887,116.71359 30.134918,121.95 40.75,121.95 c 12.24681,0 19.989189,-7.68352 20.147524,-20.35247 L 60.9,101.2 v -4 h 0.149565 v -0.166 l -0.343814,0.204792 c -6.001537,3.511198 -12.960514,5.488198 -20.453616,5.693428 l -0.70403,0.014 L 38.95,102.95 C 17.178076,102.95 0,85.206179 0,63.4 0,40.693821 16.887641,23.25 38.95,23.25 Z M 214.7,0 214.69956,25.65 H 240.95 V 42.5 H 214.69956 L 214.7,74.05 c 0,10.012586 2.92027,13.525211 10.8352,13.69359 l 0.30689,0.0048 0.30791,0.0016 c 2.85035,0 6.52231,-0.558237 10.00842,-1.484598 l 0.61306,-0.167258 4.20955,-1.178674 3.11849,16.72644 -3.50064,1.00019 C 234.1079,104.50066 229.66711,105.2 224.5,105.2 206.45184,105.2 196.69624,94.372059 196.50293,74.650348 L 196.5,74.05 196.49956,42.5 H 178.05 V 25.65 h 18.44956 L 196.5,0 Z m -81.1,23.85 c 7.5769,0 14.43665,1.774816 20.35862,5.149245 l 0.53577,0.311168 0.15517,0.09359 4.4e-4,-3.754 h 18.2 V 102.95 h -18.2 l -4.4e-4,-3.604997 -0.15517,0.09459 c -5.7093,3.379107 -12.31361,5.247397 -19.6094,5.443247 l -0.686,0.0135 L 133.6,104.9 c -22.08775,0 -39.85,-18.07027 -39.85,-40.6 0,-22.405427 17.78753,-40.45 39.85,-40.45 z m 1.35,17 c -12.78689,0 -22.85,10.495512 -22.85,23.45 0,13.085107 10.04408,23.6 22.85,23.6 7.87324,0 14.64456,-3.319114 19.58155,-9.743159 L 154.64956,77.999 V 50.75 l -0.11801,-0.156841 C 149.68951,44.292653 143.08299,40.978806 135.403,40.853681 Z m 156.15,-17 c 21.90811,0 37.58327,16.960824 37.75,40.15 l -0.002,1.044663 c -0.009,1.595013 -0.0434,2.512128 -0.14981,3.539817 L 328.28017,72.35 h -57.98161 l 0.10313,0.347081 c 2.74277,9.085435 10.11576,15.034862 20.1797,15.34055 l 0.42683,0.0096 L 291.4,88.05 c 7.90472,0 13.80629,-3.084814 16.35442,-8.097589 L 307.89008,79.677082 308.97686,77.4 h 19.21739 l -1.80921,5.293622 C 321.72535,96.327533 307.9431,104.9 291.1,104.9 c -23.06523,0 -40,-17.534229 -40,-40.6 0,-22.940131 16.95956,-40.45 40,-40.45 z M 40.3,40.25 c -12.650131,0 -21.95,9.907208 -21.95,23.15 0,12.342792 9.581479,22.55 21.95,22.55 8.285681,0 15.621828,-3.511092 20.626822,-10.157868 L 61.049565,75.625 V 50.574 L 60.926822,50.407868 C 56.014513,43.88418 48.856591,40.381116 40.75933,40.25361 Z m 250.5,0.45 c -10.03603,0 -17.57511,6.059186 -20.38114,15.307915 L 270.30257,56.4 h 39.52999 l -0.0672,-0.28756 c -2.32403,-9.479492 -9.11061,-15.264708 -18.5991,-15.409651 z" />
      <path
         fill="#00a9de"
         id="Combined-Shape"
         d="m 379.79656,24.165649 c 0.16753,0 0.3348,0.0011 0.50181,0.0033 l 50.07319,10e-4 -8.57885,18 -9.7059,3.59e-4 c 3.58628,5.794623 5.65632,12.626536 5.65632,19.941934 0,0.239081 -0.002,0.477645 -0.007,0.715674 l 0.007,-2.5e-5 v 34.94067 c 0,21.050279 -17.04028,38.121509 -38.0687,38.121509 -12.45501,0 -23.90561,-6.04336 -30.99374,-15.98228 l -0.29689,-0.42226 14.79386,-10.25386 c 3.73591,5.39003 9.83508,8.6584 16.49677,8.6584 10.96456,0 19.88121,-8.81842 20.06578,-19.774815 l 0.003,-0.346694 2.5e-4,-3.369099 c -5.79566,3.588138 -12.62936,5.659348 -19.94682,5.659348 -20.9573,0 -37.94656,-16.989259 -37.94656,-37.946568 0,-20.957309 16.98926,-37.946565 37.94656,-37.946565 z m 90,0 c 20.95731,0 37.94657,16.989256 37.94657,37.946565 0,20.957309 -16.98926,37.946566 -37.94657,37.946566 -20.9573,0 -37.94656,-16.989257 -37.94656,-37.946566 0,-20.957309 16.98926,-37.946565 37.94656,-37.946565 z m -89.58027,18.004328 h -0.83945 C 368.55443,42.393381 359.85,51.236283 359.85,62.112214 c 0,11.016183 8.93038,19.946565 19.94656,19.946565 11.01619,0 19.94657,-8.930382 19.94657,-19.946565 0,-10.875931 -8.70443,-19.718833 -19.52684,-19.942237 z m 89.58027,-0.0043 c -11.01618,0 -19.94656,8.930381 -19.94656,19.946565 0,11.016183 8.93038,19.946565 19.94656,19.946565 11.01619,0 19.94657,-8.930382 19.94657,-19.946565 0,-11.016184 -8.93038,-19.946565 -19.94657,-19.946565 z" />
    </g>
  </g>
</svg>
